<svg xmlns="http://www.w3.org/2000/svg" viewBox="0 0 66.67 48.1"><defs><style>.cls-1,.cls-2{fill:none;stroke:#f57f20;stroke-miterlimit:10;}.cls-2{stroke-width:0.5px;}</style></defs><title>Artboard 7</title><g id="atelier"><path class="cls-1" d="M5.61,6.48V41.62H61.06Zm5.83,13.65,25.31,15H11.44Z"/><line class="cls-2" x1="7.4" y1="38.83" x2="7.4" y2="41.33"/><line class="cls-2" x1="8.7" y1="40.08" x2="8.7" y2="41.33"/><line class="cls-2" x1="10.06" y1="38.83" x2="10.06" y2="41.33"/><line class="cls-2" x1="11.36" y1="40.08" x2="11.36" y2="41.33"/><line class="cls-2" x1="12.73" y1="38.83" x2="12.73" y2="41.33"/><line class="cls-2" x1="14.03" y1="40.08" x2="14.03" y2="41.33"/><line class="cls-2" x1="15.39" y1="38.83" x2="15.39" y2="41.33"/><line class="cls-2" x1="16.69" y1="40.08" x2="16.69" y2="41.33"/><line class="cls-2" x1="18.06" y1="38.83" x2="18.06" y2="41.33"/><line class="cls-2" x1="19.35" y1="40.08" x2="19.35" y2="41.33"/><line class="cls-2" x1="20.72" y1="38.83" x2="20.72" y2="41.33"/><line class="cls-2" x1="22.02" y1="40.08" x2="22.02" y2="41.33"/><line class="cls-2" x1="23.38" y1="38.83" x2="23.38" y2="41.33"/><line class="cls-2" x1="24.68" y1="40.08" x2="24.68" y2="41.33"/><line class="cls-2" x1="26.05" y1="38.83" x2="26.05" y2="41.33"/><line class="cls-2" x1="27.35" y1="40.08" x2="27.35" y2="41.33"/><line class="cls-2" x1="28.71" y1="38.83" x2="28.71" y2="41.33"/><line class="cls-2" x1="30.01" y1="40.08" x2="30.01" y2="41.33"/><line class="cls-2" x1="31.38" y1="38.83" x2="31.38" y2="41.33"/><line class="cls-2" x1="32.68" y1="40.08" x2="32.68" y2="41.33"/><line class="cls-2" x1="34.04" y1="38.83" x2="34.04" y2="41.33"/><line class="cls-2" x1="35.34" y1="40.08" x2="35.34" y2="41.33"/><line class="cls-2" x1="36.71" y1="38.83" x2="36.71" y2="41.33"/><line class="cls-2" x1="38" y1="40.08" x2="38" y2="41.33"/><line class="cls-2" x1="39.37" y1="38.83" x2="39.37" y2="41.33"/><line class="cls-2" x1="40.67" y1="40.08" x2="40.67" y2="41.33"/><line class="cls-2" x1="42.03" y1="38.83" x2="42.03" y2="41.33"/><line class="cls-2" x1="43.33" y1="40.08" x2="43.33" y2="41.33"/><line class="cls-2" x1="44.7" y1="38.83" x2="44.7" y2="41.33"/><line class="cls-2" x1="46" y1="40.08" x2="46" y2="41.33"/><line class="cls-2" x1="47.36" y1="38.83" x2="47.36" y2="41.33"/><line class="cls-2" x1="48.66" y1="40.08" x2="48.66" y2="41.33"/><line class="cls-2" x1="50.03" y1="38.83" x2="50.03" y2="41.33"/><line class="cls-2" x1="51.32" y1="40.08" x2="51.32" y2="41.33"/><line class="cls-2" x1="52.69" y1="38.83" x2="52.69" y2="41.33"/><line class="cls-2" x1="53.99" y1="40.08" x2="53.99" y2="41.33"/><line class="cls-2" x1="55.35" y1="38.83" x2="55.35" y2="41.33"/><line class="cls-2" x1="56.65" y1="40.08" x2="56.65" y2="41.33"/></g></svg>