<svg xmlns="http://www.w3.org/2000/svg" viewBox="0 0 57.83 61.83"><defs><style>.cls-1,.cls-3{fill:none;stroke-miterlimit:10;}.cls-1{stroke:#f57f20;}.cls-2{fill:#f57f20;}.cls-3{stroke:#fff;}</style></defs><title>Artboard 5</title><g id="bar"><ellipse class="cls-1" cx="40.84" cy="26.05" rx="6.99" ry="8.49"/><rect class="cls-2" x="4.54" y="27.21" width="48.75" height="32.8"/><line class="cls-3" x1="8" y1="34.54" x2="49.26" y2="34.54"/><circle class="cls-1" cx="40.76" cy="8.9" r="7.08"/><ellipse class="cls-2" cx="40.87" cy="13.17" rx="1.8" ry="0.67"/><circle class="cls-2" cx="37.46" cy="9.67" r="0.67"/><circle class="cls-2" cx="44.12" cy="9.67" r="0.67"/><path class="cls-2" d="M33.91,7.11s3.38.62,4.21-.65,1.94-1.55,2.39-.56a4.47,4.47,0,0,0,4.66,1.83c2-.56,2-1.15,2-1.15S45.22,2.26,41.9,1.91A7.21,7.21,0,0,0,33.91,7.11Z"/><path class="cls-2" d="M10.83,19.18A.25.25,0,0,0,10.6,19H6.81a.25.25,0,0,0-.22.13A3.77,3.77,0,0,0,6.16,21a3.62,3.62,0,0,0,.73,2.23,2.43,2.43,0,0,0,1.31.89V26.7H7.43a.26.26,0,1,0,0,.51H10a.26.26,0,1,0,0-.51H9.22V24.09a2.43,2.43,0,0,0,1.31-.89A3.62,3.62,0,0,0,11.26,21a3.77,3.77,0,0,0-.43-1.78ZM7,19.56h3.47a3.3,3.3,0,0,1,.3,1.4s0,.09,0,.13H6.67s0-.08,0-.13a3.3,3.3,0,0,1,.3-1.4Z"/><path class="cls-2" d="M18.82,19.18a.25.25,0,0,0-.22-.13H14.81a.25.25,0,0,0-.22.13A3.77,3.77,0,0,0,14.15,21a3.62,3.62,0,0,0,.73,2.23,2.43,2.43,0,0,0,1.31.89V26.7h-.77a.26.26,0,1,0,0,.51H18a.26.26,0,1,0,0-.51h-.77V24.09a2.43,2.43,0,0,0,1.31-.89A3.62,3.62,0,0,0,19.25,21a3.77,3.77,0,0,0-.43-1.78ZM15,19.56h3.47a3.3,3.3,0,0,1,.3,1.4s0,.09,0,.13H14.66s0-.08,0-.13a3.3,3.3,0,0,1,.3-1.4Z"/><path class="cls-2" d="M26.81,19.18a.25.25,0,0,0-.22-.13H22.8a.25.25,0,0,0-.22.13A3.77,3.77,0,0,0,22.14,21a3.62,3.62,0,0,0,.73,2.23,2.43,2.43,0,0,0,1.31.89V26.7h-.77a.26.26,0,1,0,0,.51H26a.26.26,0,1,0,0-.51H25.2V24.09a2.43,2.43,0,0,0,1.31-.89A3.62,3.62,0,0,0,27.24,21a3.77,3.77,0,0,0-.43-1.78ZM23,19.56h3.47a3.3,3.3,0,0,1,.3,1.4s0,.09,0,.13H22.65s0-.08,0-.13a3.3,3.3,0,0,1,.3-1.4Z"/></g></svg>