<svg xmlns="http://www.w3.org/2000/svg" viewBox="0 0 55.04 52.74"><defs><style>.cls-1{fill:#f57f20;}</style></defs><title>Artboard 8</title><g id="FabLabs"><path class="cls-1" d="M40.76,6.72,34.6,5.47,13.28,8,4,27.62,14.11,45.77l6.66,1.5L41.26,45.6l9.82-20.31Zm0,37.94L20.31,46.18,10.78,30l9.66-19.48L40.59,8.17l9.49,17.07Z"/><path class="cls-1" d="M31.26,14.76c-6-.52-11.42,4.76-12,11.8S23,39.72,29.07,40.24s11.42-4.76,12-11.8S37.3,15.28,31.26,14.76ZM34.4,27.87c-.5,5.79-4.11,10.21-8.07,9.87s-6.76-5.31-6.26-11.1,4.11-10.21,8.07-9.87S34.9,22.08,34.4,27.87Z"/></g></svg>