<svg xmlns="http://www.w3.org/2000/svg" viewBox="0 0 53.33 62.67"><defs><style>.cls-1{fill:none;stroke:#f57f20;stroke-miterlimit:10;}.cls-2{fill:#f57f20;}</style></defs><title>Artboard 9</title><g id="gouter"><polygon class="cls-1" points="16.65 23.81 22.06 28.64 28.05 23.84 22.35 18.23 16.65 23.81"/><path class="cls-1" d="M27.85,24l-5.79,4.63L16.87,24H5.74V47.15s7.83,9.21,13,11.1c2.55-1.33,28.42-13.93,28.42-13.93V24Z"/><line class="cls-1" x1="18.9" y1="4.49" x2="22.35" y2="18.23"/><path class="cls-1" d="M7.41,11.65s6.24-.58,7-1.75,5.74-5.08,3.91-5.41S9.24,4.66,7.41,11.65Z"/><path class="cls-2" d="M27.38,23.84l-5.32,4.8-5.38-4.8H5.74s.56,9.66,13,15c22.76-11.32,28.86-15,28.86-15Z"/><line class="cls-1" x1="18.9" y1="37.32" x2="18.9" y2="58.25"/><line class="cls-1" x1="18.9" y1="43.04" x2="47.15" y2="29.61"/><line class="cls-1" x1="18.9" y1="53.03" x2="47.15" y2="39.54"/><path class="cls-1" d="M18.9,49a2.24,2.24,0,0,0,2.39-1.78c.39-1.94,1.33-3.66,4.05-2.94s4.72.78,5.44-1.94,2.05-2.72,4.5-2.16,4.22.22,4.61-2.72,7.27-2.66,7.27-2.66"/></g></svg>