<svg xmlns="http://www.w3.org/2000/svg" viewBox="0 0 48 66.17"><defs><style>.cls-1{fill:none;stroke:#f57f20;stroke-miterlimit:10;}.cls-2{fill:#f57f20;}</style></defs><title>Artboard 10</title><g id="Layer_10" data-name="Layer 10"><rect class="cls-1" x="7.47" y="9.11" width="33.05" height="47.96"/><rect class="cls-2" x="7.47" y="9.11" width="33.05" height="7.66"/><rect class="cls-1" x="11.11" y="38.53" width="6.27" height="6.27"/><rect class="cls-1" x="20.43" y="38.53" width="6.27" height="6.27"/><rect class="cls-1" x="29.76" y="38.53" width="6.27" height="6.27"/><rect class="cls-1" x="11.11" y="47.85" width="6.27" height="6.27"/><rect class="cls-1" x="20.43" y="47.85" width="6.27" height="6.27"/><rect class="cls-1" x="29.76" y="47.85" width="6.27" height="6.27"/><line class="cls-1" x1="11.54" y1="35.42" x2="36.46" y2="35.42"/><line class="cls-1" x1="11.82" y1="35.42" x2="36.74" y2="35.42"/><line class="cls-1" x1="10.35" y1="35.42" x2="35.27" y2="35.42"/><polygon class="cls-1" points="12.18 21.97 16.46 30.26 31.08 30.26 36.03 22.1 27.83 25.14 24.28 21.51 20.43 24.72 12.18 21.97"/><polygon class="cls-1" points="23.88 26.98 18.55 30.26 28.66 30.26 23.88 26.98"/><line class="cls-1" x1="24.28" y1="21.51" x2="23.88" y2="26.98"/></g></svg>