<?xml version="1.0" encoding="utf-8"?>
<!-- Generator: Adobe Illustrator 18.1.1, SVG Export Plug-In . SVG Version: 6.00 Build 0)  -->
<svg version="1.1" id="Calque_1" xmlns="http://www.w3.org/2000/svg" xmlns:xlink="http://www.w3.org/1999/xlink" x="0px" y="0px"
	 viewBox="0 0 274.4 142.2" enable-background="new 0 0 274.4 142.2" xml:space="preserve">
<path fill="#FFFFFF" d="M179,86V73.6h-1.4c-1.4,2.3-2.7,4.5-4,6.8l-4-6.8h-1.4V86h1.3v-9.8l3.5,5.9h1.2c1.2-2.1,2.4-4,3.5-5.9V86
	H179z M140.1,74.9v-1.3h-8.5V86h8.5v-1.3h-7.2v-4.4h6.3v-1.3h-6.3v-4H140.1z M185,70.2l-2.1,2.5h1.7l2.6-2.5H185z M129.7,78.4v-2.8
	l-2-2h-7.2V86h1.3v-5.7h3.3l3.1,5.7h1.5c-1.1-1.9-2.2-3.9-3.1-5.7h0.9L129.7,78.4z M121.9,78.9v-4h5.3l1.2,1.2v1.6l-1.4,1.1H121.9z
	 M148.6,73.6h-1.4V86h1.3V75.9l6.3,10.1h1.4V73.6h-1.3v10.1L148.6,73.6z M157.9,73.6v10.7l2,1.6h4.5l2-1.6V73.6h-1.3v10.1
	c-0.4,0.3-0.8,0.7-1.1,1h-3.6l-1.1-1V73.6H157.9z M239.5,63.6H71v2.1h168.4V63.6z M189.3,74.9v-1.3h-8.5V86h8.5v-1.3h-7.2v-4.4h6.3
	v-1.3h-6.3v-4H189.3z M237.8,74.9v-1.3h-8.5V86h8.5v-1.3h-7.2v-4.4h6.3v-1.3h-6.3v-4H237.8z M219,73.6v10.7l2,1.6h4.5l2-1.6V73.6
	h-1.3v10.1c-0.4,0.3-0.8,0.7-1.1,1h-3.6l-1.1-1V73.6H219z M110.3,73.6v10.7l2,1.6h4.5l2-1.6V73.6h-1.3v10.1c-0.4,0.3-0.8,0.7-1.1,1
	h-3.6l-1.1-1V73.6H110.3z M206.1,74.9v-1.3h-4v1.3h1.3v9.7h-1.3V86h4v-1.3h-1.4v-9.7H206.1z M217,75.6l-2-2h-5.2l-2,2v8.7l2,1.6h4
	l2.4,2.4l0.9-0.9l-1.8-1.8l1.6-1.3V75.6z M215.7,83.7c-0.4,0.3-0.8,0.7-1.2,1h-4.2c-0.9-0.8-1-0.9-1.2-1v-7.5l1.2-1.2h4.1l1.2,1.2
	V83.7z M200.2,78.4v-2.8l-2-2h-7.2V86h1.3v-5.7h3.3l3.1,5.7h1.5c-1.1-1.9-2.2-3.9-3.1-5.7h0.9L200.2,78.4z M192.4,78.9v-4h5.3
	l1.2,1.2v1.6l-1.4,1.1H192.4z M88.5,58l5.6-4.6v-9l-5.9-6h-10c-0.6-0.5-1.2-0.9-1.7-1.4c-0.2-0.2-0.5-0.4-0.8-0.7
	c-0.2-0.1-0.4-0.4-0.6-0.6c-0.1-0.1-0.1-0.1-0.2-0.2v-3.9l2.9-2.9h9l2.9,2.9v1.9h4.3V30l-5.6-5.6H76.2L70.6,30v7.7l6,5.1h9.8
	l3.4,3.4v5.2l-0.4,0.3c-0.8,0.7-1.6,1.4-2.4,2h-9.3L75,51.3v-1.8h-4.3v3.9l5.6,4.6H88.5z M126.8,24.4h-3.9v5.1h3.9V24.4z
	 M110.5,57.9l1-1v1h4V40.5l-5-5h-7.7l-5,5V44h3.9v-1.9l2.6-2.6h4.5l2.1,2.1h-2.2l-10.8,6.6V53l5,5H110.5z M101.8,50.6
	c3.1-1.9,4.9-3,6.2-3.9c0.6-0.4,1.2-0.8,1.8-1.1h1.7v5.9c-0.6,0.6-1.1,1.1-1.6,1.6c-0.3,0.3-0.7,0.6-1,1h-4.5l-2.6-2.6V50.6z
	 M122.8,58h3.9V35.5h-6.9v3.9h3V58z M26.5,108.2l8.7,8.7V24.1h-8.7V108.2z M62.2,93.9V24.1h-8.7v94.6h190.2V93.9H62.2z M182.5,113.6
	l-3.9-7.1h-4v7.1H173V98.3h8.9l2.4,2.5v3.4l-2.7,2.3h-1.2c1.2,2.2,2.6,4.7,3.9,7.1H182.5z M197.9,100H189v4.9h7.7v1.7H189v5.5h8.9
	v1.6h-10.6V98.3h10.6V100z M205.8,100h-1.7v12h1.7v1.6h-4.9V112h1.6v-12h-1.6v-1.6h4.9V100z M222.1,113.6h-1.6v-12.1
	c-1.4,2.4-2.8,4.7-4.3,7.3h-1.4l-4.3-7.3v12.2h-1.6V98.3h1.7l4.9,8.4c1.6-2.7,3.3-5.5,4.9-8.4h1.7V113.6z M235.6,102.2h-1.6v-0.8
	l-1.5-1.5h-4.3l-1.5,1.5v2c0.1,0.1,0.3,0.3,0.4,0.4c0.4,0.4,0.8,0.7,1.2,1h4.7l2.6,2.7v4l-2.5,2h-5.6l-2.5-2v-1.5h1.6v0.7l1.4,1.2
	h4.5c0.5-0.4,1-0.8,1.4-1.2v-2.6l-1.7-1.7h-4.6l-2.7-2.3v-3.4l2.5-2.5h5.6l2.5,2.5V102.2z M182.7,103.4v-2l-1.5-1.5h-6.6v4.9h6.4
	L182.7,103.4z M40,118.7h8.7V24.1H40V118.7z M136.9,42.1l2.6-2.6h4.5c0.5,0.5,1,1,1.6,1.6c0.3,0.3,0.7,0.7,1,1V58h4V40.5l-5-5h-7.6
	l-0.1,0.1c-0.3,0.3-0.6,0.6-0.9,0.9v-1h-4V58h3.9V42.1z M104.7,86v-11h3.8v-1.3h-9v1.3h3.9v11H104.7z M82.2,73.6v10.7l2,1.6h4.5
	l2-1.6V73.6h-1.3v10.1c-0.4,0.3-0.8,0.7-1.1,1h-3.6l-1.1-1V73.6H82.2z M221,58l5.1-7.7l5.1,7.7h4.6l-0.6-1
	c-2.9-4.5-5.1-7.8-6.8-10.2l7.5-11.2h-4.7l-5.1,7.7l-5.1-7.7h-4.7l7.5,11.3L216.3,58H221z M92.5,73.6V86h8.5v-1.3h-7.2v-11H92.5z
	 M80.5,76.8v-1.1l-2-2h-4.5l-2,2v8.7l2,1.6h4.5l2-1.6v-1.2h-1.3v0.6c-0.4,0.3-0.8,0.7-1.1,1h-3.6l-1.1-1v-7.5l1.2-1.2h3.5l1.2,1.2
	v0.6H80.5z M156.5,53l4.9,5h5.8V54H163l-2.6-2.6V39.3h6.8v-3.8h-6.8V24.4h-3.9v11.1h-3.1v3.8h3.1V53z M212,57.9v-4.2h-16.4l-2.8-2.9
	v-8.1h16.7v-4.4h-16.7v-6.8l2.8-2.9H212v-4.2h-18.1l-5.4,5.4v22.6l5.4,5.4H212z M183.9,41.1h-13.8v4.3h13.8V41.1z"/>
</svg>
