<?xml version="1.0" encoding="UTF-8" standalone="no"?>
<!DOCTYPE svg PUBLIC "-//W3C//DTD SVG 1.1//EN" "http://www.w3.org/Graphics/SVG/1.1/DTD/svg11.dtd">
<svg width="100%" height="200" viewBox="0 0 228 192" version="1.1" xmlns="http://www.w3.org/2000/svg" xmlns:xlink="http://www.w3.org/1999/xlink" xml:space="preserve" xmlns:serif="http://www.serif.com/" style="fill-rule:evenodd;clip-rule:evenodd;stroke-miterlimit:10;">
    <g id="Calque_2">
        <path d="M171.667,86.499L166.5,91.666L166.5,105.332L171.667,110.499L185.333,110.499L190.5,105.332L190.5,91.666L185.333,86.499L171.667,86.499Z" style="fill:none;stroke:white;stroke-width:1px;"/>
        <path d="M138.667,152.499L133.5,157.666L133.5,171.332L138.667,176.499L152.333,176.499L157.5,171.332L157.5,157.666L152.333,152.499L138.667,152.499Z" style="fill:none;stroke:white;stroke-width:1px;"/>
        <path d="M171.667,164.499L166.5,169.666L166.5,183.332L171.667,188.499L185.333,188.499L190.5,183.332L190.5,169.666L185.333,164.499L171.667,164.499Z" style="fill:none;stroke:white;stroke-width:1px;"/>
        <path d="M190.5,78.999L190.5,60.666L185.333,55.499L171.667,55.499L166.5,60.666L166.5,78.999" style="fill:none;stroke:white;stroke-width:1px;"/>
        <path d="M223.5,86.999L223.5,54.666L218.333,49.499L204.667,49.499L199.5,54.666L199.5,86.999" style="fill:none;stroke:white;stroke-width:1px;"/>
        <path d="M223.5,200.999L223.5,102.666L218.333,97.499L204.667,97.499L199.5,102.666L199.5,200.999" style="fill:none;stroke:white;stroke-width:1px;"/>
        <path d="M190.5,155.999L190.5,125.666L185.333,120.499L171.667,120.499L166.5,125.666L166.5,155.999" style="fill:none;stroke:white;stroke-width:1px;"/>
        <path d="M157.5,92.999L157.5,7.666L152.333,2.499L138.667,2.499L133.5,7.666L133.5,92.999" style="fill:none;stroke:white;stroke-width:1px;"/>
        <path d="M60.5,172.999L60.5,87.666L55.333,82.499L41.667,82.499L36.5,87.666L36.5,172.999" style="fill:none;stroke:white;stroke-width:1px;"/>
        <path d="M27.5,225.999L27.5,140.666L22.333,135.499L8.667,135.499L3.5,140.666L3.5,225.999" style="fill:none;stroke:white;stroke-width:1px;"/>
        <path d="M60.5,69.999L60.5,38.666L55.333,33.499L41.667,33.499L36.5,38.666L36.5,69.999" style="fill:none;stroke:white;stroke-width:1px;"/>
        <path d="M157.5,141.999L157.5,111.666L152.333,106.499L138.667,106.499L133.5,111.666L133.5,141.999" style="fill:none;stroke:white;stroke-width:1px;"/>
        <path d="M125.5,117.999L125.5,87.666L120.333,82.499L106.667,82.499L101.5,87.666L101.5,117.999" style="fill:none;stroke:white;stroke-width:1px;"/>
        <path d="M92.5,137.999L92.5,107.666L87.333,102.499L73.667,102.499L68.5,107.666L68.5,137.999" style="fill:none;stroke:white;stroke-width:1px;"/>
        <path d="M92.5,211.999L92.5,154.666L87.333,149.499L73.667,149.499L68.5,154.666L68.5,211.999" style="fill:none;stroke:white;stroke-width:1px;"/>
        <path d="M125.5,163.999L125.5,133.666L120.333,128.499L106.667,128.499L101.5,133.666L101.5,163.999" style="fill:none;stroke:white;stroke-width:1px;"/>
        <path d="M125.5,204.999L125.5,174.666L120.333,169.499L106.667,169.499L101.5,174.666L101.5,204.999" style="fill:none;stroke:white;stroke-width:1px;"/>
        <path d="M190.5,49.999L190.5,31.666L185.333,26.499L171.667,26.499L166.5,31.666L166.5,49.999" style="fill:none;stroke:white;stroke-width:1px;"/>
    </g>
</svg>
